<svg width="60" height="60" viewBox="0 0 60 60" fill="none" xmlns="http://www.w3.org/2000/svg">
<g filter="url(#filter0_d_642_3531)">
<path d="M7.5 42.5H52.5C53.8807 42.5 55 43.6192 55 45C55 46.282 54.035 47.3387 52.7915 47.4832L52.5 47.5H7.5C6.1193 47.5 5 46.3807 5 45C5 43.718 5.9651 42.6613 7.20845 42.5168L7.5 42.5ZM7.4997 27.5L52.4998 27.4945C53.8805 27.4945 55 28.6135 55 29.9942C55 31.2762 54.0352 32.3333 52.7917 32.4778L52.5002 32.4945L7.5003 32.5C6.1196 32.5002 5 31.381 5 30.0002C5 28.7183 5.96485 27.6615 7.20815 27.5167L7.4997 27.5ZM7.5 12.5H52.5C53.8807 12.5 55 13.6193 55 15C55 16.2821 54.035 17.3388 52.7915 17.4832L52.5 17.5H7.5C6.1193 17.5 5 16.3807 5 15C5 13.7179 5.9651 12.6612 7.20845 12.5168L7.5 12.5Z" fill="#FFBF00"/>
<path d="M7.50018 31.5H7.50012C6.67171 31.5002 6 30.8286 6 30.0002C6 29.2404 6.56568 28.6112 7.29844 28.5132L7.52846 28.5L52.4998 28.4945C52.4998 28.4945 52.4998 28.4945 52.4999 28.4945C53.3286 28.4946 54 29.1661 54 29.9942C54 30.7543 53.4342 31.3835 52.7016 31.4813L52.4715 31.4945L7.50018 31.5ZM7.29864 43.5132L7.52871 43.5H52.5C53.3285 43.5 54 44.1715 54 45C54 45.7598 53.4342 46.389 52.7013 46.4868L52.4713 46.5H7.5C6.67157 46.5 6 45.8285 6 45C6 44.2402 6.56583 43.6111 7.29864 43.5132ZM7.2987 13.5133L7.52883 13.5H52.5C53.3285 13.5 54 14.1716 54 15C54 15.7599 53.4342 16.389 52.7013 16.4867L52.4712 16.5H7.5C6.67158 16.5 6 15.8284 6 15C6 14.2401 6.56589 13.611 7.2987 13.5133Z" stroke="#FFBF00" stroke-width="2"/>
</g>
<defs>
<filter id="filter0_d_642_3531" x="1" y="12.5" width="58" height="43" filterUnits="userSpaceOnUse" color-interpolation-filters="sRGB">
<feFlood flood-opacity="0" result="BackgroundImageFix"/>
<feColorMatrix in="SourceAlpha" type="matrix" values="0 0 0 0 0 0 0 0 0 0 0 0 0 0 0 0 0 0 127 0" result="hardAlpha"/>
<feOffset dy="4"/>
<feGaussianBlur stdDeviation="2"/>
<feComposite in2="hardAlpha" operator="out"/>
<feColorMatrix type="matrix" values="0 0 0 0 0 0 0 0 0 0 0 0 0 0 0 0 0 0 0.25 0"/>
<feBlend mode="normal" in2="BackgroundImageFix" result="effect1_dropShadow_642_3531"/>
<feBlend mode="normal" in="SourceGraphic" in2="effect1_dropShadow_642_3531" result="shape"/>
</filter>
</defs>
</svg>
